<svg width="25" height="24" viewBox="0 0 25 24" fill="none" xmlns="http://www.w3.org/2000/svg">
<path d="M4.46944 14.4693L11.9694 6.96932C12.0391 6.89959 12.1218 6.84427 12.2129 6.80653C12.3039 6.76879 12.4015 6.74936 12.5001 6.74936C12.5986 6.74936 12.6962 6.76879 12.7873 6.80653C12.8783 6.84427 12.961 6.89959 13.0307 6.96932L20.5307 14.4693C20.6714 14.6101 20.7505 14.8009 20.7505 14.9999C20.7505 15.199 20.6714 15.3898 20.5307 15.5306C20.39 15.6713 20.1991 15.7504 20.0001 15.7504C19.801 15.7504 19.6102 15.6713 19.4694 15.5306L12.5001 8.56026L5.5307 15.5306C5.46101 15.6003 5.37829 15.6555 5.28724 15.6932C5.1962 15.731 5.09862 15.7504 5.00007 15.7504C4.90152 15.7504 4.80394 15.731 4.7129 15.6932C4.62185 15.6555 4.53913 15.6003 4.46944 15.5306C4.39976 15.4609 4.34449 15.3782 4.30678 15.2871C4.26906 15.1961 4.24965 15.0985 4.24965 15C4.24965 14.9014 4.26906 14.8038 4.30678 14.7128C4.34449 14.6217 4.39976 14.539 4.46944 14.4693Z" fill="white"/>
</svg>
