<svg width="17" height="10" viewBox="0 0 17 10" fill="none" xmlns="http://www.w3.org/2000/svg">
<path d="M0.469444 8.46933L7.96945 0.969325C8.0391 0.899592 8.12182 0.844272 8.21287 0.80653C8.30391 0.768786 8.40151 0.749361 8.50007 0.749361C8.59863 0.749361 8.69623 0.768786 8.78728 0.80653C8.87832 0.844272 8.96104 0.899592 9.0307 0.969325L16.5307 8.46932C16.6714 8.61005 16.7505 8.80093 16.7505 8.99995C16.7505 9.19897 16.6714 9.38984 16.5307 9.53057C16.39 9.67131 16.1991 9.75037 16.0001 9.75037C15.801 9.75037 15.6102 9.67131 15.4694 9.53057L8.50007 2.56026L1.5307 9.53058C1.46101 9.60026 1.37829 9.65553 1.28724 9.69325C1.1962 9.73096 1.09862 9.75037 1.00007 9.75037C0.901525 9.75037 0.803943 9.73096 0.712898 9.69325C0.621853 9.65553 0.539127 9.60026 0.469444 9.53058C0.399763 9.46089 0.344488 9.37817 0.306776 9.28712C0.269064 9.19608 0.249653 9.0985 0.249653 8.99995C0.249653 8.9014 0.269064 8.80382 0.306776 8.71278C0.344488 8.62173 0.399763 8.53901 0.469444 8.46933Z" fill="white"/>
</svg>
